<?xml version="1.0" standalone="no"?>
<!DOCTYPE svg PUBLIC "-//W3C//DTD SVG 20010904//EN"
 "http://www.w3.org/TR/2001/REC-SVG-20010904/DTD/svg10.dtd">
<svg version="1.0" xmlns="http://www.w3.org/2000/svg"
 width="2048.000000pt" height="2048.000000pt" viewBox="0 0 2048.000000 2048.000000"
 preserveAspectRatio="xMidYMid meet">
<metadata>
Created by potrace 1.11, written by Peter Selinger 2001-2013
</metadata>
<g transform="translate(0.000000,2048.000000) scale(0.100000,-0.100000)"
fill="#000000" stroke="none">
<path d="M0 10240 l0 -10240 10240 0 10240 0 0 10240 0 10240 -10240 0 -10240
0 0 -10240z m11658 9045 c178 -29 195 -33 187 -46 -7 -11 37 -29 71 -29 17 0
27 -8 34 -25 7 -18 17 -25 35 -25 34 0 67 -18 59 -31 -3 -6 3 -13 15 -16 12
-3 21 -13 21 -24 0 -14 7 -19 26 -19 17 0 28 -6 31 -20 3 -10 13 -22 24 -25
10 -3 16 -12 13 -20 -3 -7 3 -16 15 -20 13 -4 18 -12 14 -21 -4 -10 2 -17 15
-21 13 -3 19 -10 15 -20 -3 -9 2 -16 15 -19 13 -4 18 -12 15 -25 -4 -13 0 -19
11 -19 9 0 16 -8 16 -20 0 -11 7 -20 15 -20 8 0 15 -9 15 -20 0 -11 7 -20 15
-20 10 0 15 -10 15 -34 0 -19 5 -38 10 -41 6 -3 10 -22 10 -41 0 -22 6 -37 16
-41 12 -5 14 -15 9 -54 -5 -38 -4 -50 8 -54 16 -7 15 -30 -7 -165 -11 -68 -11
-83 1 -87 19 -8 16 -30 -6 -36 -14 -3 -20 -18 -25 -63 -10 -83 -27 -145 -37
-138 -10 5 -24 -24 -33 -68 -3 -15 -15 -29 -25 -33 -10 -3 -21 -19 -25 -35 -3
-17 -12 -30 -20 -30 -7 0 -16 -9 -19 -20 -3 -13 -10 -18 -21 -14 -12 5 -18 -2
-23 -26 -3 -20 -13 -35 -25 -37 -10 -3 -18 -12 -18 -19 0 -8 -9 -14 -20 -14
-11 0 -20 -7 -20 -15 0 -8 -9 -15 -20 -15 -11 0 -20 -7 -20 -15 0 -8 -9 -15
-19 -15 -10 0 -21 -7 -25 -15 -3 -8 -10 -15 -16 -15 -6 0 -18 -7 -27 -15 -8
-8 -18 -13 -23 -10 -4 3 -10 -2 -14 -10 -3 -9 -18 -15 -40 -15 -22 0 -36 -6
-40 -16 -5 -12 -14 -15 -36 -11 -16 4 -32 2 -36 -4 -4 -8 -124 -734 -124 -755
0 -2 -7 -4 -15 -4 -7 0 -18 -7 -23 -15 -7 -13 -49 -9 -338 37 -221 36 -329 57
-329 65 0 7 -8 18 -18 25 -17 13 -16 29 37 358 71 448 68 411 29 422 -19 5
-33 15 -33 24 0 8 -13 20 -30 25 -16 6 -30 17 -30 25 0 8 -7 14 -15 14 -8 0
-15 9 -15 20 0 11 -7 20 -15 20 -8 0 -15 9 -15 20 0 11 -7 20 -15 20 -8 0 -15
9 -15 19 0 10 -7 21 -15 25 -8 3 -15 12 -15 21 0 8 -5 15 -10 15 -6 0 -15 11
-20 25 -5 14 -14 25 -20 25 -5 0 -10 6 -10 14 0 7 -7 19 -16 27 -10 8 -14 23
-12 41 3 16 -1 29 -9 32 -7 3 -13 21 -13 41 0 25 -4 35 -16 35 -13 0 -15 8 -9
50 5 39 3 53 -10 66 -9 9 -14 23 -11 31 4 8 9 46 12 84 5 52 4 69 -6 69 -9 0
-11 12 -6 48 10 67 16 82 31 82 12 0 35 94 35 143 0 9 11 24 25 33 15 10 25
26 25 41 0 32 17 63 35 63 9 0 15 10 15 26 0 17 6 28 20 31 10 3 22 15 26 27
8 25 54 75 70 76 7 0 15 7 18 16 3 9 12 14 20 11 9 -3 16 3 19 15 4 13 11 19
20 15 9 -3 17 2 20 14 3 12 11 17 20 13 10 -3 18 2 22 15 3 11 12 18 20 15 7
-3 16 3 20 15 4 12 12 18 20 14 8 -3 18 2 21 11 3 9 13 16 20 16 8 0 17 7 20
15 4 10 20 15 45 15 22 0 39 5 39 11 0 7 18 10 49 7 37 -2 52 1 59 13 9 14 19
15 54 8 33 -6 45 -5 53 7 13 19 20 18 203 -11z m-1360 -2706 c47 -8 67 -8 75
0 14 14 84 13 175 -3 63 -11 74 -11 79 1 4 11 19 12 67 7 93 -10 1049 -162
1071 -170 11 -5 27 -16 35 -25 10 -11 44 -21 100 -29 116 -16 127 -19 133 -40
3 -12 19 -19 53 -24 75 -11 125 -26 119 -36 -8 -13 4 -17 86 -34 51 -11 78
-22 88 -36 7 -11 23 -20 35 -20 38 0 96 -21 96 -34 0 -15 30 -26 68 -26 15 0
26 -7 29 -20 3 -12 17 -23 32 -26 14 -3 37 -7 50 -10 13 -3 25 -14 28 -24 3
-13 14 -20 29 -20 35 0 74 -18 74 -34 0 -9 16 -16 44 -20 31 -5 47 -13 51 -25
3 -11 19 -21 39 -25 19 -4 46 -18 60 -31 15 -14 36 -25 47 -25 12 0 19 -7 19
-19 0 -15 10 -20 45 -25 29 -5 49 -14 55 -26 5 -10 23 -21 40 -25 16 -4 29
-10 29 -13 -3 -22 4 -30 31 -35 18 -4 30 -13 30 -22 0 -9 12 -18 30 -21 16 -4
32 -14 35 -24 3 -10 18 -20 34 -23 17 -4 30 -14 34 -26 3 -12 13 -21 22 -21
10 0 28 -11 41 -25 13 -14 32 -25 44 -25 13 0 20 -7 20 -20 0 -11 7 -20 15
-20 8 0 15 -9 15 -19 0 -14 8 -21 28 -23 16 -2 31 -12 37 -25 6 -15 18 -23 33
-23 15 0 26 -7 29 -20 3 -11 12 -20 19 -20 8 0 14 -9 14 -20 0 -15 9 -22 30
-26 16 -4 32 -15 35 -24 3 -10 19 -22 35 -25 17 -4 30 -13 30 -21 0 -8 7 -17
15 -20 8 -4 15 -15 15 -25 0 -10 7 -19 15 -19 8 0 15 -9 15 -20 0 -15 7 -20
28 -20 21 0 32 -7 40 -25 6 -14 16 -25 22 -25 5 0 10 -7 10 -16 0 -8 14 -20
30 -25 17 -6 30 -17 30 -24 0 -7 7 -15 15 -19 8 -3 15 -12 15 -21 0 -8 7 -15
15 -15 8 0 15 -9 15 -20 0 -11 7 -20 15 -20 8 0 15 -9 15 -20 0 -15 9 -22 30
-26 17 -4 30 -10 30 -15 0 -5 0 -11 0 -14 0 -3 15 -19 33 -36 17 -17 31 -37
29 -44 -1 -7 7 -15 18 -18 13 -3 18 -11 14 -20 -3 -9 3 -16 15 -20 13 -3 19
-11 15 -20 -3 -9 3 -16 15 -20 14 -3 19 -11 15 -20 -3 -10 2 -18 15 -22 11 -3
18 -12 15 -20 -3 -7 3 -16 15 -20 13 -4 18 -12 14 -21 -4 -10 2 -17 15 -21 13
-3 19 -10 15 -20 -4 -9 2 -16 15 -20 13 -3 19 -10 15 -20 -4 -9 2 -16 15 -20
12 -3 18 -10 15 -19 -3 -8 2 -17 11 -20 9 -3 16 -15 16 -25 0 -10 7 -19 15
-19 8 0 15 -9 15 -20 0 -11 7 -20 15 -20 8 0 15 -9 15 -20 0 -11 7 -20 15 -20
8 0 15 -9 15 -20 0 -11 7 -20 15 -20 8 0 15 -9 15 -20 0 -11 7 -20 15 -20 8 0
15 -9 15 -20 0 -11 7 -20 15 -20 8 0 15 -9 15 -20 0 -11 5 -20 10 -20 6 0 15
-11 20 -25 5 -14 15 -25 21 -25 7 0 10 -12 7 -31 -4 -22 0 -33 14 -40 10 -6
16 -14 13 -19 -3 -5 3 -14 14 -20 11 -6 18 -16 15 -24 -3 -8 3 -16 15 -19 14
-3 19 -10 15 -21 -4 -10 0 -18 10 -22 10 -4 16 -18 16 -40 0 -24 5 -34 15 -34
8 0 15 -9 15 -20 0 -11 4 -20 9 -20 13 0 41 -59 41 -87 0 -13 7 -26 15 -29 8
-4 15 -15 15 -25 0 -11 7 -19 16 -19 13 0 15 -8 12 -34 -3 -28 0 -36 15 -40
13 -3 18 -10 13 -21 -3 -9 0 -18 9 -21 9 -4 15 -19 15 -39 0 -21 6 -35 16 -39
12 -5 15 -14 10 -37 -5 -25 -2 -32 13 -36 12 -3 17 -11 14 -19 -3 -8 2 -17 11
-20 10 -4 16 -18 16 -36 0 -16 7 -36 15 -44 9 -10 12 -25 8 -44 -4 -24 -2 -30
12 -30 14 0 16 -7 13 -34 -3 -24 1 -37 13 -44 11 -7 15 -19 11 -37 -3 -18 1
-30 13 -39 13 -9 16 -20 11 -40 -5 -19 -2 -28 9 -32 9 -4 15 -19 15 -39 0 -20
6 -35 15 -39 12 -4 14 -14 9 -41 -5 -28 -3 -35 10 -35 12 0 16 -10 16 -40 0
-22 5 -40 11 -40 6 0 9 -20 8 -51 -2 -35 1 -53 11 -59 9 -6 14 -21 12 -40 -2
-19 2 -32 10 -35 11 -4 13 -19 11 -54 -3 -28 0 -52 6 -56 6 -3 11 -28 11 -54
0 -26 5 -52 11 -58 6 -6 10 -32 8 -57 -3 -32 0 -47 10 -51 11 -4 12 -20 7 -71
-5 -52 -4 -68 9 -80 9 -9 14 -24 11 -33 -3 -9 -8 -37 -12 -63 -5 -40 -4 -48
10 -48 18 0 20 -22 6 -90 -7 -37 -6 -47 7 -57 14 -11 15 -22 5 -90 -9 -64 -8
-81 3 -93 15 -16 14 -46 -5 -150 -9 -46 -8 -57 5 -66 16 -12 15 -35 -21 -267
-15 -100 -15 -120 -4 -127 12 -7 -11 -169 -132 -927 -80 -505 -143 -923 -141
-929 2 -7 17 -14 34 -18 16 -3 29 -12 29 -20 0 -9 19 -19 50 -26 31 -7 50 -17
50 -26 0 -8 14 -17 31 -21 18 -3 34 -14 36 -23 3 -10 18 -20 34 -24 21 -4 29
-11 29 -26 0 -16 7 -20 31 -20 23 0 32 -5 36 -21 4 -12 17 -22 34 -26 16 -3
29 -12 29 -20 0 -7 7 -16 15 -19 8 -4 15 -14 15 -24 0 -12 11 -20 35 -24 26
-5 35 -12 35 -26 0 -11 7 -20 15 -20 8 0 15 -9 15 -20 0 -11 7 -20 15 -20 8 0
15 -9 15 -19 0 -10 7 -21 15 -25 8 -3 15 -12 15 -20 0 -7 7 -16 15 -20 8 -3
15 -12 15 -19 0 -8 14 -17 31 -21 29 -5 31 -9 27 -40 -3 -28 0 -36 15 -40 12
-3 17 -10 14 -19 -4 -10 2 -17 15 -20 13 -4 19 -11 15 -20 -4 -10 2 -17 15
-20 13 -4 19 -11 15 -21 -3 -8 1 -17 9 -20 8 -3 14 -19 14 -41 0 -24 4 -35 15
-35 8 0 15 -9 15 -19 0 -10 7 -22 16 -25 13 -5 15 -14 10 -41 -6 -28 -4 -35 9
-35 10 0 15 -10 15 -34 0 -21 6 -36 15 -40 12 -4 14 -14 10 -39 -5 -27 -3 -36
10 -41 11 -4 16 -15 13 -36 -2 -19 3 -34 11 -39 11 -7 12 -23 7 -71 -6 -50 -4
-64 8 -73 14 -10 14 -22 5 -76 -8 -55 -8 -66 5 -73 12 -7 14 -19 10 -51 -2
-23 -142 -908 -309 -1965 -168 -1058 -305 -1932 -305 -1942 0 -11 10 -20 30
-23 21 -5 30 -12 30 -27 0 -13 7 -20 18 -20 20 0 82 -51 82 -67 0 -6 7 -14 16
-17 9 -3 14 -13 11 -21 -4 -8 2 -16 14 -20 12 -4 18 -13 15 -20 -3 -8 4 -17
15 -20 13 -4 18 -12 15 -22 -4 -9 1 -17 15 -20 12 -3 18 -11 15 -19 -3 -8 3
-18 14 -24 11 -6 17 -16 14 -25 -4 -9 0 -15 10 -15 12 0 16 -9 16 -34 0 -22 6
-36 16 -40 12 -5 15 -14 10 -37 -4 -21 -1 -31 9 -35 9 -4 15 -19 15 -40 0 -19
6 -37 13 -40 10 -4 12 -20 5 -72 -7 -55 -5 -69 7 -78 14 -10 14 -22 0 -110
-26 -167 -35 -204 -51 -204 -7 0 -16 -12 -19 -27 -16 -77 -28 -112 -38 -110
-6 1 -15 -12 -20 -30 -5 -17 -17 -33 -27 -36 -9 -2 -20 -18 -23 -36 -4 -19
-13 -31 -22 -31 -9 0 -21 -14 -26 -30 -6 -17 -17 -30 -24 -30 -7 0 -15 -7 -19
-15 -3 -8 -12 -15 -21 -15 -8 0 -15 -7 -15 -15 0 -8 -9 -15 -19 -15 -10 0 -21
-7 -25 -15 -3 -8 -12 -15 -21 -15 -8 0 -15 -5 -15 -10 0 -6 -11 -15 -25 -20
-14 -5 -25 -14 -25 -20 0 -5 -9 -10 -20 -10 -12 0 -20 -7 -20 -16 0 -13 -7
-15 -34 -11 -28 4 -35 2 -39 -14 -3 -12 -11 -17 -21 -13 -10 4 -18 0 -22 -10
-4 -10 -18 -16 -40 -16 -19 0 -34 -4 -34 -10 0 -5 -23 -10 -50 -10 -28 0 -59
-5 -69 -12 -16 -9 -40 -9 -112 1 -68 10 -94 10 -97 2 -2 -6 -19 -11 -37 -11
-23 0 -34 5 -38 19 -3 14 -21 21 -88 30 -112 17 -119 19 -119 40 0 14 -11 20
-50 25 -41 5 -50 10 -50 26 0 14 -7 20 -24 20 -24 0 -51 22 -40 32 3 3 -11 11
-30 18 -20 6 -36 17 -36 25 0 7 -7 15 -15 19 -8 3 -15 12 -15 21 0 8 -7 15
-15 15 -8 0 -15 9 -15 19 0 10 -7 21 -15 25 -8 3 -15 12 -15 21 0 8 -5 15 -10
15 -6 0 -15 11 -20 25 -5 14 -14 25 -20 25 -5 0 -10 7 -10 15 0 9 -7 18 -15
21 -8 4 -15 15 -15 25 0 10 -7 19 -15 19 -8 0 -15 9 -15 20 0 11 -4 20 -10 20
-5 0 -10 16 -10 35 0 24 -6 38 -16 42 -13 5 -15 15 -10 53 5 39 3 49 -10 54
-13 5 -15 15 -9 55 5 40 4 51 -10 58 -16 9 -15 23 10 179 29 184 37 214 60
214 8 0 15 9 15 21 0 40 23 109 36 109 7 0 16 11 20 25 3 14 14 30 24 35 10 5
21 23 25 40 5 21 13 30 26 30 10 0 19 7 19 15 0 8 9 15 20 15 11 0 20 7 20 15
0 8 9 15 20 15 11 0 20 7 20 15 0 8 8 15 19 15 13 0 20 9 25 30 5 27 10 30 41
30 24 0 35 5 35 15 0 8 9 15 19 15 10 0 21 7 25 15 3 8 12 15 20 15 7 0 17 7
20 16 5 12 14 15 36 11 19 -4 32 -2 37 7 4 8 17 15 27 17 18 4 35 100 203
1154 100 633 182 1161 180 1175 -2 20 -8 26 -34 28 -25 3 -33 -1 -33 -13 0
-14 -6 -16 -35 -11 -28 6 -35 4 -35 -9 0 -11 -10 -15 -39 -15 -21 0 -44 -6
-50 -14 -7 -8 -21 -12 -32 -9 -11 3 -27 -1 -37 -10 -16 -14 -40 -15 -108 -2
-23 4 -33 1 -38 -10 -3 -8 -12 -15 -20 -15 -8 0 -17 -3 -19 -7 -3 -5 -42 -244
-87 -533 -69 -435 -86 -528 -102 -540 -13 -11 -23 -48 -38 -140 -16 -99 -25
-128 -41 -141 -15 -11 -23 -35 -32 -88 -7 -49 -16 -75 -26 -79 -21 -7 -31 -22
-31 -47 0 -36 -21 -96 -31 -90 -11 7 -29 -37 -29 -72 0 -17 -7 -27 -20 -30
-11 -3 -22 -16 -25 -29 -3 -13 -7 -35 -10 -49 -4 -17 -12 -25 -25 -25 -15 0
-20 -7 -20 -27 0 -48 -11 -73 -31 -73 -14 0 -19 -7 -19 -30 0 -23 -4 -30 -20
-30 -15 0 -22 -9 -27 -31 -3 -18 -14 -34 -23 -36 -10 -3 -21 -23 -29 -54 -7
-27 -17 -47 -21 -44 -5 3 -14 -4 -20 -15 -6 -11 -17 -20 -26 -20 -8 0 -17 -13
-20 -29 -4 -16 -14 -31 -24 -34 -9 -2 -20 -18 -23 -36 -5 -22 -12 -31 -27 -31
-11 0 -20 -7 -20 -15 0 -8 -9 -15 -20 -15 -15 0 -20 -7 -20 -26 0 -17 -6 -28
-20 -31 -11 -3 -20 -9 -20 -14 0 -5 -11 -14 -25 -19 -17 -7 -25 -17 -25 -34 0
-16 -7 -27 -20 -31 -11 -3 -20 -13 -20 -21 0 -8 -9 -14 -20 -14 -12 0 -20 -7
-20 -16 0 -11 -6 -15 -19 -11 -16 4 -21 -2 -27 -25 -3 -17 -14 -33 -24 -35
-10 -3 -21 -11 -24 -19 -3 -8 -12 -14 -20 -14 -7 0 -16 -7 -20 -15 -3 -8 -12
-15 -21 -15 -8 0 -15 -7 -15 -15 0 -8 -9 -15 -20 -15 -11 0 -20 -7 -20 -15 0
-8 -9 -15 -19 -15 -10 0 -21 -7 -25 -15 -3 -8 -12 -15 -21 -15 -8 0 -15 -5
-15 -10 0 -6 -11 -15 -25 -20 -14 -5 -25 -14 -25 -20 0 -5 -7 -10 -15 -10 -9
0 -18 -7 -21 -15 -4 -8 -15 -15 -25 -15 -10 0 -19 -7 -19 -15 0 -8 -9 -15 -20
-15 -11 0 -20 -7 -20 -15 0 -8 -9 -15 -19 -15 -10 0 -22 -7 -25 -16 -4 -9 -13
-14 -21 -10 -9 3 -15 0 -15 -9 0 -16 -9 -18 -48 -15 -12 1 -25 -6 -28 -14 -3
-9 -15 -16 -25 -16 -10 0 -19 -7 -19 -15 0 -8 -9 -15 -20 -15 -12 0 -20 -7
-20 -16 0 -13 -7 -15 -34 -11 -28 4 -35 2 -39 -14 -3 -12 -11 -17 -20 -13 -8
3 -17 -2 -20 -10 -4 -10 -19 -16 -42 -16 -24 0 -35 -4 -35 -15 0 -8 -8 -15
-17 -15 -10 0 -26 -7 -36 -14 -9 -7 -28 -11 -42 -8 -19 3 -25 0 -25 -13 0 -14
-7 -16 -35 -13 -24 3 -35 0 -35 -9 0 -14 -9 -16 -51 -13 -17 1 -29 -5 -33 -16
-5 -12 -14 -15 -37 -10 -21 4 -31 1 -35 -9 -4 -9 -19 -15 -36 -15 -16 0 -36
-7 -44 -15 -9 -9 -25 -12 -43 -9 -20 4 -30 1 -34 -10 -5 -12 -17 -14 -55 -10
-40 4 -51 2 -56 -11 -5 -13 -14 -15 -50 -10 -32 5 -51 3 -66 -8 -14 -10 -32
-12 -60 -7 -30 6 -40 4 -45 -8 -4 -12 -18 -14 -74 -8 -54 5 -70 3 -74 -8 -3
-8 -16 -12 -34 -10 -126 15 -153 16 -153 5 0 -17 -43 -14 -216 15 -135 22
-158 23 -173 11 -14 -12 -299 31 -2176 329 -1188 189 -2161 343 -2162 344 -2
0 -3 6 -3 14 0 8 -12 17 -27 20 -29 6 -264 45 -320 53 -19 3 -33 12 -36 23 -3
12 -18 20 -48 25 -79 12 -119 26 -119 40 0 13 -10 16 -94 30 -26 4 -40 12 -43
25 -4 14 -18 21 -50 26 -32 5 -47 12 -50 24 -5 19 -31 30 -71 30 -15 0 -26 7
-29 20 -5 20 -13 23 -69 35 -20 4 -34 14 -37 26 -3 12 -14 19 -30 19 -17 0
-28 7 -32 19 -3 11 -19 22 -35 26 -21 5 -30 13 -30 26 0 14 -7 19 -25 19 -15
0 -31 9 -41 25 -10 15 -26 25 -40 25 -17 0 -24 6 -24 19 0 14 -10 21 -35 25
-25 5 -35 12 -35 25 0 13 -10 20 -30 25 -18 3 -30 12 -30 21 0 8 -5 15 -10 15
-6 0 -15 11 -20 25 -7 17 -17 25 -34 25 -16 0 -27 7 -31 20 -3 11 -13 20 -21
20 -8 0 -14 9 -14 19 0 13 -9 21 -30 26 -21 5 -30 13 -30 26 0 10 -7 19 -15
19 -8 0 -15 9 -15 20 0 11 -7 20 -15 20 -8 0 -15 8 -15 19 0 12 -9 20 -29 24
-17 4 -32 14 -36 26 -3 10 -12 22 -20 25 -8 3 -15 12 -15 21 0 8 -7 15 -15 15
-8 0 -15 9 -15 19 0 10 -7 22 -16 25 -8 3 -13 10 -9 15 3 6 -4 15 -15 21 -11
6 -18 15 -15 20 3 5 -4 14 -15 20 -11 6 -18 15 -15 20 3 5 -3 14 -14 20 -11 6
-18 16 -15 24 3 8 -3 16 -15 19 -13 3 -19 11 -15 20 3 9 -3 16 -15 20 -13 3
-19 11 -15 20 3 9 -3 16 -15 20 -14 3 -19 11 -15 20 3 10 -2 18 -15 22 -12 4
-18 12 -14 21 3 7 0 14 -6 14 -6 0 -16 11 -21 25 -5 14 -14 25 -20 25 -5 0
-10 7 -10 15 0 9 -7 18 -15 21 -9 4 -15 19 -15 40 0 24 -5 34 -15 34 -8 0 -15
9 -15 20 0 11 -4 20 -10 20 -5 0 -12 11 -16 25 -3 14 -10 25 -15 25 -5 0 -9
16 -9 35 0 19 -5 35 -10 35 -6 0 -15 11 -20 25 -5 14 -14 25 -20 25 -5 0 -8
14 -6 30 2 21 -2 33 -14 40 -12 6 -15 18 -12 39 3 24 0 31 -12 31 -10 0 -16 9
-16 25 0 14 -6 25 -14 25 -9 0 -12 9 -10 29 2 17 -3 34 -11 41 -8 7 -15 28
-15 46 0 19 -5 34 -11 34 -6 0 -9 20 -8 51 2 35 -1 53 -11 59 -9 6 -14 21 -12
38 2 20 -2 31 -14 36 -12 5 -15 14 -11 36 5 21 2 32 -10 38 -13 8 -15 19 -10
57 6 38 4 50 -10 60 -14 10 -15 20 -6 74 9 55 8 63 -7 71 -15 8 -16 17 -9 52
6 34 5 45 -8 55 -14 11 -15 22 -5 95 10 70 10 83 -3 90 -16 10 -15 32 10 186
12 72 12 89 1 102 -17 19 -11 61 84 659 38 245 70 450 70 457 0 7 -13 15 -30
19 -16 4 -30 13 -30 21 0 7 -11 16 -25 19 -14 3 -36 7 -49 10 -13 3 -26 14
-29 25 -3 14 -13 20 -32 20 -18 0 -29 6 -32 19 -3 10 -19 23 -36 28 -18 5 -32
15 -32 23 0 9 -12 16 -28 18 -19 2 -31 11 -37 28 -6 15 -17 24 -31 24 -13 0
-23 8 -26 20 -3 12 -12 20 -21 18 -13 -3 -48 -205 -198 -1148 -99 -630 -184
-1166 -188 -1192 l-7 -48 30 0 c28 0 36 -8 32 -32 0 -3 13 -10 30 -13 19 -4
33 -15 36 -26 3 -10 12 -19 19 -19 8 0 14 -9 14 -20 0 -11 7 -20 15 -20 8 0
15 -9 15 -20 0 -11 7 -20 15 -20 8 0 15 -9 15 -20 0 -11 7 -20 15 -20 8 0 15
-9 15 -19 0 -10 7 -21 15 -25 8 -3 15 -12 15 -21 0 -8 5 -15 10 -15 6 0 15
-11 20 -25 5 -14 15 -25 21 -25 7 0 10 -12 7 -31 -3 -20 0 -33 9 -36 7 -3 13
-13 13 -24 0 -10 7 -22 17 -27 13 -8 15 -19 10 -56 -6 -38 -4 -46 10 -46 13 0
15 -8 9 -55 -5 -44 -3 -57 9 -61 16 -7 15 -19 -10 -184 -27 -171 -34 -197 -55
-203 -14 -4 -20 -14 -21 -34 -1 -39 -13 -68 -30 -68 -9 0 -17 -18 -22 -47 -6
-30 -14 -48 -23 -48 -7 0 -18 -9 -24 -20 -6 -11 -16 -19 -22 -17 -6 1 -16 -13
-21 -30 -7 -22 -16 -33 -28 -33 -11 0 -19 -7 -19 -15 0 -8 -9 -15 -20 -15 -11
0 -20 -7 -20 -15 0 -8 -9 -15 -20 -15 -11 0 -20 -7 -20 -15 0 -8 -9 -15 -20
-15 -11 0 -20 -7 -20 -15 0 -8 -9 -15 -20 -15 -11 0 -20 -7 -20 -15 0 -8 -9
-15 -19 -15 -10 0 -21 -7 -25 -15 -3 -8 -15 -15 -26 -15 -11 0 -20 -4 -20 -10
0 -5 -15 -10 -34 -10 -22 0 -36 -6 -40 -16 -4 -11 -15 -15 -36 -12 -19 3 -31
0 -35 -10 -4 -11 -18 -13 -55 -10 -39 4 -53 2 -59 -10 -8 -14 -19 -14 -111 -1
-84 12 -103 13 -107 2 -9 -23 -76 -11 -74 13 1 10 -26 18 -126 34 -52 8 -72
16 -75 28 -3 10 -24 22 -51 29 -28 8 -47 19 -47 27 0 8 -15 17 -35 20 -26 5
-35 12 -35 26 0 11 -7 20 -15 20 -8 0 -15 9 -15 20 0 14 -7 20 -24 20 -24 0
-51 22 -40 33 3 3 -4 8 -16 12 -14 4 -19 12 -16 22 4 9 -1 17 -15 20 -12 4
-18 11 -15 20 4 9 -2 17 -15 20 -12 3 -18 11 -15 19 3 8 -4 18 -15 24 -11 6
-17 15 -14 20 3 5 -3 14 -14 20 -11 6 -18 16 -15 24 3 7 -2 16 -10 19 -10 4
-16 18 -16 37 0 19 -6 33 -16 37 -12 4 -14 14 -9 39 5 27 3 34 -10 34 -11 0
-15 10 -15 36 0 19 -6 42 -14 49 -10 11 -11 26 -3 71 8 48 7 59 -6 69 -14 10
-15 21 -2 106 8 52 19 118 25 148 5 29 10 55 10 56 0 2 8 5 19 8 13 3 20 18
25 56 9 65 15 81 32 81 7 0 17 15 22 32 4 18 14 33 22 33 8 0 18 15 22 32 6
23 14 33 28 33 15 0 20 7 20 26 0 17 6 28 19 31 11 3 21 13 24 24 3 12 11 17
20 13 10 -3 18 2 22 15 3 11 12 18 20 15 7 -3 16 3 20 15 4 13 12 18 21 14 10
-4 17 2 21 15 3 12 10 18 19 15 8 -3 17 2 20 11 3 9 15 16 25 16 10 0 19 7 19
15 0 8 9 15 20 15 12 0 20 7 20 16 0 13 8 15 34 12 24 -3 37 1 44 13 7 11 20
14 41 11 17 -2 31 -2 31 1 0 3 142 900 315 1994 280 1770 317 1990 335 2003
13 10 24 36 31 78 9 49 15 62 29 62 13 0 19 11 25 46 5 33 12 48 25 51 10 3
20 18 24 35 4 18 14 32 26 35 14 4 20 14 20 34 0 22 5 29 20 29 15 0 22 9 27
31 3 18 14 34 23 36 10 3 20 18 24 34 4 20 12 29 25 29 13 0 20 9 24 30 4 18
13 30 22 30 8 0 15 7 15 15 0 13 12 19 32 16 4 0 10 9 13 20 4 12 13 18 20 15
8 -3 17 3 20 15 4 11 14 18 22 17 11 -2 19 8 25 30 5 18 13 30 18 27 5 -3 16
5 24 17 9 12 16 18 16 13 1 -6 10 1 20 14 11 13 20 19 20 15 1 -5 9 0 18 12
12 14 27 20 45 18 17 -2 30 3 34 12 3 8 14 14 24 14 10 0 19 7 19 15 0 8 9 15
20 15 11 0 20 5 20 10 0 6 11 15 25 20 14 5 25 15 25 21 0 7 12 10 31 7 20 -3
33 0 36 9 3 7 20 13 39 13 22 0 37 6 40 15 4 8 14 15 24 15 10 0 20 5 22 12 3
7 24 11 56 9 41 -1 52 2 52 14 0 13 7 15 35 9 28 -5 36 -3 41 11 6 14 15 16
56 11 38 -5 50 -4 54 8 4 11 16 14 40 11 19 -2 34 -3 34 -1 0 13 274 1723 288
1796 13 69 22 95 32 95 11 0 21 39 42 165 15 91 27 168 27 171 1 4 9 9 19 11
15 4 21 22 31 84 18 113 30 154 46 154 7 0 16 12 19 28 26 136 27 140 46 145
12 3 20 14 20 27 0 40 22 110 36 110 14 0 19 14 29 78 4 26 14 46 25 52 11 6
22 27 26 48 4 20 18 47 30 59 15 14 24 33 24 52 0 22 7 35 25 47 17 11 25 25
25 44 0 28 22 60 41 60 5 0 9 10 9 23 0 39 12 66 30 72 10 3 20 18 23 34 4 17
14 30 26 34 14 3 21 13 21 29 0 43 12 68 31 68 14 0 19 7 19 28 0 21 7 32 25
40 17 8 25 20 25 37 0 18 5 25 19 25 13 0 20 10 25 31 4 19 13 33 26 36 14 4
20 14 20 34 0 22 5 29 20 29 15 0 22 9 27 31 3 18 14 34 23 36 10 3 20 18 24
34 4 21 11 29 26 29 14 0 20 7 20 24 0 24 22 51 32 40 4 -3 9 9 13 26 4 19 15
34 25 37 11 3 22 18 25 34 4 16 13 29 20 29 8 0 19 9 25 20 6 11 16 19 21 17
6 -1 17 13 23 31 6 18 14 30 18 27 3 -4 11 3 18 14 6 12 17 21 25 21 7 0 17
10 21 23 8 26 50 67 68 67 8 0 17 16 20 35 4 19 10 34 14 34 20 -3 32 3 32 16
0 8 9 15 20 15 11 0 20 7 20 15 0 8 8 15 19 15 13 0 20 9 25 30 3 18 12 30 21
30 9 0 18 7 21 15 4 8 15 15 25 15 10 0 19 7 19 15 0 8 9 15 19 15 13 0 21 9
26 30 4 17 13 30 20 30 7 0 15 7 19 15 3 8 11 15 18 15 7 0 19 9 26 20 7 12
17 18 23 14 6 -3 13 4 16 16 4 13 11 19 20 16 9 -4 17 2 20 15 4 12 11 18 20
15 7 -3 16 1 19 9 4 8 13 15 20 15 8 0 17 7 20 15 4 8 13 15 20 15 8 0 17 6
20 14 3 8 14 16 24 19 10 3 21 18 25 36 3 17 10 30 13 30 21 -3 32 3 32 16 0
8 3 14 8 14 20 -3 32 3 32 17 0 8 4 13 9 10 4 -3 19 3 31 14 12 11 26 17 30
15 4 -3 10 2 14 10 3 9 18 15 36 15 18 0 33 6 36 15 4 8 15 15 25 15 10 0 19
7 19 15 0 8 9 15 20 15 11 0 20 7 20 15 0 8 9 15 20 15 11 0 20 7 20 15 0 8 9
15 20 15 11 0 20 7 20 15 0 8 9 15 20 15 11 0 20 5 20 10 0 6 11 15 25 20 14
5 25 14 25 19 0 5 16 7 35 4 27 -4 35 -1 35 11 0 9 8 16 20 16 11 0 20 7 20
15 0 8 9 15 19 15 10 0 21 7 25 15 3 8 12 15 20 15 7 0 17 7 20 16 4 12 15 15
37 12 25 -4 33 -1 37 14 3 11 10 17 18 14 8 -3 18 3 23 13 8 13 18 17 37 13
18 -3 30 0 36 12 5 9 15 16 22 16 8 0 16 7 20 15 3 8 14 15 25 15 11 0 21 5
23 12 2 6 18 11 36 10 22 0 32 4 32 14 0 10 12 14 40 14 29 0 40 4 40 15 0 8
9 15 19 15 10 0 21 6 24 13 3 9 16 12 36 9 18 -2 31 0 31 6 0 15 69 46 97 44
13 -1 26 5 29 13 4 9 19 15 39 15 20 0 35 6 39 15 4 11 13 14 31 9 19 -5 30
-1 39 11 9 12 21 16 39 13 16 -3 31 0 38 8 6 8 25 14 41 14 17 0 31 6 35 16 4
12 14 14 40 9 25 -4 35 -2 39 10 4 9 19 15 40 15 19 0 34 5 34 10 0 6 24 10
54 10 38 0 55 4 60 15 4 10 14 13 35 9 23 -5 32 -2 37 10 6 14 15 16 60 10 46
-5 54 -4 54 10 0 14 8 16 50 10 40 -5 53 -3 63 9 10 13 21 14 55 8 35 -7 44
-6 52 9 8 14 17 16 57 10 37 -6 50 -4 59 8 8 12 22 14 57 9 37 -5 48 -3 55 10
8 14 18 15 70 6 50 -8 64 -7 76 5 13 13 27 13 93 4 66 -10 80 -9 88 3 12 18
20 18 103 4z m-1278 -13909 c1114 -176 2035 -322 2047 -325 13 -3 22 -9 20
-14 -1 -5 6 -16 16 -23 16 -12 17 -19 6 -61 -6 -27 -17 -47 -25 -47 -7 0 -16
-11 -19 -25 -3 -14 -7 -36 -10 -49 -3 -13 -14 -26 -25 -29 -13 -3 -20 -14 -20
-29 0 -43 -12 -68 -31 -68 -14 0 -19 -7 -19 -30 0 -27 -9 -35 -33 -31 -4 1
-10 -13 -14 -30 -3 -18 -14 -34 -24 -36 -10 -3 -21 -18 -24 -34 -4 -19 -13
-29 -25 -29 -10 0 -20 -9 -23 -21 -3 -12 -10 -18 -16 -15 -5 4 -15 -3 -21 -14
-6 -11 -16 -19 -22 -17 -6 1 -15 -13 -20 -30 -5 -19 -15 -33 -24 -33 -8 0 -17
-7 -20 -15 -4 -8 -15 -15 -25 -15 -10 0 -19 -7 -19 -15 0 -8 -9 -15 -20 -15
-11 0 -20 -7 -20 -15 0 -8 -9 -15 -20 -15 -11 0 -20 -7 -20 -15 0 -8 -9 -15
-19 -15 -10 0 -21 -7 -25 -15 -3 -8 -12 -15 -19 -15 -8 0 -20 -7 -27 -15 -8
-9 -21 -13 -36 -9 -17 4 -26 1 -30 -10 -3 -9 -15 -16 -25 -16 -10 0 -19 -7
-19 -15 0 -8 -9 -15 -20 -15 -12 0 -20 -7 -20 -16 0 -13 -7 -15 -35 -11 -27 5
-35 2 -40 -13 -3 -11 -12 -17 -19 -14 -7 3 -16 -2 -19 -10 -4 -10 -19 -16 -41
-16 -21 0 -36 -6 -40 -15 -4 -12 -14 -14 -41 -9 -29 5 -35 3 -35 -11 0 -14 -7
-16 -34 -13 -27 3 -36 0 -39 -14 -4 -14 -12 -17 -36 -12 -24 5 -35 2 -45 -11
-9 -13 -20 -16 -39 -11 -19 4 -29 1 -35 -10 -8 -14 -19 -16 -61 -11 -42 5 -51
3 -51 -10 0 -13 -9 -15 -55 -9 -45 5 -55 3 -55 -9 0 -17 -23 -18 -90 -5 -36 7
-47 6 -57 -6 -9 -12 -25 -14 -82 -8 -50 5 -71 3 -71 -5 0 -15 -44 -14 -161 6
-82 13 -104 14 -123 3 -27 -14 -33 -13 -281 27 -124 20 -163 30 -175 44 -11
14 -46 24 -139 39 -134 22 -141 24 -141 45 0 9 -17 16 -47 21 -65 9 -93 21
-93 38 0 9 -16 16 -47 20 -70 10 -80 15 -86 36 -3 13 -14 20 -29 20 -43 0 -68
12 -68 31 0 13 -7 19 -24 19 -37 0 -76 18 -76 34 0 9 -12 16 -27 18 -17 2 -32
12 -38 26 -7 15 -18 22 -37 22 -21 0 -28 5 -28 20 0 14 -9 21 -35 26 -25 4
-35 11 -35 25 0 14 -7 19 -25 19 -18 0 -28 7 -35 25 -7 17 -17 25 -34 25 -16
0 -27 7 -31 20 -3 11 -13 20 -21 20 -8 0 -14 9 -14 19 0 13 -9 21 -30 26 -21
5 -30 13 -30 26 0 10 -7 19 -15 19 -8 0 -15 8 -15 19 0 12 -9 20 -29 24 -17 4
-32 14 -36 26 -3 10 -12 22 -20 25 -8 3 -15 12 -15 20 0 7 -7 16 -15 20 -8 3
-15 12 -15 20 0 7 -7 16 -15 20 -8 3 -15 12 -15 20 0 7 -7 16 -15 20 -8 3 -15
12 -15 20 0 7 -7 16 -15 20 -8 3 -15 12 -15 20 0 7 -7 17 -16 20 -8 3 -13 10
-10 15 3 5 -1 14 -9 21 -8 7 -15 19 -15 27 0 7 -7 16 -15 19 -9 4 -15 19 -15
40 0 24 -5 34 -15 34 -8 0 -15 9 -15 20 0 12 -7 20 -16 20 -13 0 -15 7 -10 34
5 25 3 35 -9 40 -9 3 -15 18 -15 40 0 22 -6 36 -16 40 -12 4 -14 14 -9 36 5
23 3 32 -10 36 -12 5 -15 16 -13 41 1 21 -3 37 -11 42 -10 7 -12 24 -6 75 4
45 3 66 -4 66 -7 0 -11 22 -11 55 0 52 1 55 25 55 15 0 25 6 25 14 0 8 7 12
18 10 9 -2 928 -148 2042 -324z"/>
<path d="M10120 14997 c0 -10 -18 -11 -87 -3 -64 6 -88 6 -91 -3 -4 -13 -59
-14 -122 -1 -37 7 -47 6 -57 -7 -10 -12 -23 -14 -63 -9 -41 6 -50 4 -50 -9 0
-12 -10 -14 -62 -9 -35 3 -66 8 -69 10 -4 2 -10 -3 -13 -12 -5 -13 -17 -16
-57 -12 -37 4 -52 2 -56 -8 -3 -8 -19 -14 -37 -14 -18 0 -37 -5 -43 -11 -6 -6
-32 -10 -57 -8 -32 3 -46 0 -46 -8 0 -14 -9 -16 -51 -13 -17 1 -29 -5 -33 -16
-5 -12 -14 -15 -37 -10 -21 4 -31 1 -35 -9 -4 -10 -20 -15 -45 -15 -21 0 -39
-4 -39 -10 0 -5 -16 -10 -35 -10 -26 0 -35 -4 -35 -16 0 -13 -8 -15 -35 -12
-22 2 -36 -1 -39 -9 -3 -7 -21 -13 -41 -13 -19 0 -35 -5 -35 -10 0 -6 -11 -15
-25 -20 -14 -5 -25 -14 -25 -18 0 -5 -14 -8 -30 -6 -21 3 -33 -1 -36 -11 -4
-8 -15 -15 -25 -15 -10 0 -19 -7 -19 -15 0 -10 -10 -15 -31 -15 -18 0 -45 -11
-66 -27 -23 -17 -46 -26 -64 -25 -20 2 -29 -2 -29 -13 0 -8 -9 -15 -20 -15
-11 0 -20 -7 -20 -15 0 -8 -9 -15 -20 -15 -11 0 -20 -5 -20 -10 0 -6 -11 -15
-25 -20 -14 -5 -25 -14 -25 -20 0 -5 -7 -10 -15 -10 -7 0 -18 -6 -22 -14 -8
-14 -12 -16 -33 -16 -5 0 -10 -6 -10 -14 0 -9 -10 -12 -35 -9 -26 3 -35 0 -35
-12 0 -8 -9 -15 -19 -15 -13 0 -21 -9 -26 -30 -4 -16 -10 -30 -14 -30 -4 0
-18 -9 -31 -20 -12 -11 -27 -17 -31 -14 -5 3 -9 -2 -9 -11 0 -8 -8 -19 -17
-22 -10 -4 -23 -13 -29 -21 -6 -8 -16 -12 -21 -9 -6 4 -13 -3 -16 -14 -4 -14
-11 -20 -21 -16 -10 4 -17 -3 -21 -25 -4 -17 -15 -32 -25 -35 -10 -3 -21 -11
-24 -19 -3 -8 -12 -14 -21 -14 -8 0 -15 -7 -15 -15 0 -8 -8 -15 -19 -15 -13 0
-20 -9 -24 -30 -4 -18 -13 -30 -22 -30 -9 0 -18 -6 -21 -14 -3 -8 -14 -16 -25
-19 -13 -3 -19 -14 -19 -31 0 -19 -7 -29 -25 -36 -16 -6 -25 -17 -25 -31 0
-12 -8 -23 -19 -26 -12 -3 -21 -17 -25 -39 -4 -18 -10 -33 -14 -33 -22 4 -30
-4 -35 -31 -4 -18 -13 -30 -22 -30 -9 0 -18 -12 -22 -31 -3 -18 -14 -34 -23
-36 -10 -3 -21 -23 -29 -53 -7 -27 -18 -48 -24 -47 -7 1 -16 -12 -21 -30 -5
-17 -17 -34 -27 -36 -10 -3 -19 -19 -23 -43 -13 -77 -18 -93 -24 -93 -22 3
-32 -3 -32 -22 0 -40 -23 -109 -36 -109 -14 0 -17 -8 -35 -102 -9 -47 -17 -68
-29 -71 -13 -3 -20 -24 -29 -88 -7 -46 -17 -102 -22 -124 -5 -22 -11 -52 -14
-67 -3 -16 -12 -28 -20 -28 -16 0 -14 6 -54 -240 -24 -149 -26 -177 -14 -186
11 -10 12 -27 3 -100 -6 -49 -15 -116 -21 -149 -9 -52 -9 -61 6 -71 15 -11 16
-20 6 -75 -9 -54 -8 -64 6 -74 13 -9 15 -22 10 -58 -5 -35 -3 -46 8 -51 9 -3
15 -18 15 -36 0 -17 6 -38 14 -46 8 -8 12 -23 9 -35 -4 -14 0 -26 12 -35 12
-9 16 -21 13 -39 -4 -18 0 -29 13 -36 10 -5 16 -16 13 -24 -4 -8 1 -18 10 -21
10 -4 16 -18 16 -40 0 -24 5 -34 15 -34 8 0 15 -9 15 -20 0 -11 7 -20 15 -20
8 0 15 -9 15 -19 0 -10 7 -21 15 -25 8 -3 15 -12 15 -20 0 -7 7 -16 15 -20 8
-3 15 -12 15 -21 0 -8 7 -15 15 -15 8 0 15 -9 15 -19 0 -13 9 -21 30 -26 21
-5 30 -13 30 -26 0 -10 7 -19 15 -19 8 0 15 -9 15 -20 0 -15 7 -20 28 -20 21
0 32 -7 40 -25 7 -15 20 -25 33 -25 12 0 23 -8 26 -19 3 -11 17 -21 35 -25 18
-4 32 -14 35 -26 3 -12 14 -20 27 -20 39 0 65 -12 71 -31 4 -10 13 -19 20 -19
8 0 37 -5 65 -11 36 -8 50 -15 50 -28 0 -14 15 -19 77 -28 57 -8 81 -16 92
-32 13 -16 41 -25 136 -40 66 -11 129 -23 140 -25 11 -3 32 -7 48 -11 15 -3
27 -12 27 -19 0 -16 -35 -10 640 -116 432 -69 516 -79 525 -68 8 12 39 10 200
-15 258 -39 911 -142 1120 -177 94 -16 175 -29 182 -29 6 -1 13 -9 15 -18 3
-15 86 -31 578 -109 489 -78 577 -89 586 -77 13 15 76 10 264 -21 76 -13 86
-13 97 2 11 14 22 14 90 4 70 -11 79 -11 90 4 11 15 21 16 75 7 53 -9 65 -8
74 5 8 11 22 14 57 9 35 -5 46 -3 51 8 3 9 19 15 40 15 21 0 36 6 40 15 4 11
13 14 32 9 20 -5 31 -2 40 11 10 13 21 16 43 12 23 -5 30 -2 34 14 3 12 11 17
20 13 8 -3 17 2 20 10 4 10 19 16 42 16 24 0 35 4 35 15 0 8 9 15 20 15 11 0
20 7 20 15 0 8 9 15 20 15 11 0 20 7 20 15 0 8 9 15 20 15 11 0 20 7 20 15 0
8 9 15 19 15 10 0 22 7 25 16 3 9 13 14 20 11 10 -4 17 4 21 25 4 18 15 32 26
35 10 3 19 12 19 19 0 8 8 14 18 14 12 0 21 11 27 33 6 17 16 32 24 32 8 0 19
15 23 33 5 17 15 32 23 32 8 0 18 15 23 33 4 17 15 32 23 32 9 0 18 18 25 50
7 36 15 50 27 49 11 -1 18 10 22 40 13 82 28 126 41 126 16 0 19 11 38 135 16
101 29 141 47 147 9 3 24 76 45 204 27 170 29 201 18 215 -14 16 -8 102 16
231 14 70 12 98 -4 98 -14 0 -13 40 3 127 7 33 5 43 -7 48 -12 4 -13 18 -8 74
6 58 4 69 -9 75 -13 5 -15 15 -9 51 4 30 2 50 -6 60 -7 8 -11 34 -8 60 2 31
-1 46 -11 50 -10 4 -12 19 -9 55 4 38 2 50 -8 50 -10 0 -14 13 -14 39 0 26 -5
41 -16 45 -12 4 -14 14 -9 36 5 22 3 32 -9 36 -10 4 -16 18 -16 36 0 16 -7 36
-15 44 -9 10 -12 25 -8 44 4 23 2 30 -11 30 -9 0 -16 8 -16 19 0 10 -6 21 -14
24 -9 4 -14 17 -12 34 1 17 -5 33 -14 40 -11 8 -15 22 -12 42 3 24 0 31 -12
31 -9 0 -16 8 -16 20 0 11 -5 20 -10 20 -6 0 -15 11 -20 25 -5 14 -14 25 -18
25 -5 0 -8 14 -6 30 3 21 -1 33 -11 36 -8 4 -15 15 -15 25 0 10 -7 19 -15 19
-8 0 -15 9 -15 20 0 11 -7 20 -15 20 -8 0 -15 9 -15 20 0 11 -5 20 -10 20 -6
0 -15 11 -20 25 -5 14 -14 25 -20 25 -5 0 -10 7 -10 15 0 9 -7 18 -15 21 -8 4
-15 13 -15 20 0 8 -7 17 -15 20 -8 4 -15 13 -15 20 0 8 -7 17 -15 20 -8 4 -15
13 -15 20 0 8 -7 17 -15 20 -8 4 -15 12 -15 20 0 8 -5 14 -10 14 -6 0 -15 11
-20 25 -5 14 -14 25 -20 25 -5 0 -10 7 -10 15 0 9 -7 18 -15 21 -8 4 -15 15
-15 25 0 10 -7 19 -15 19 -8 0 -15 9 -15 20 0 15 -7 20 -26 20 -17 0 -28 6
-31 20 -3 10 -13 22 -24 25 -10 3 -16 12 -13 20 4 8 -7 17 -30 25 -20 6 -34
16 -31 20 3 5 -4 14 -15 20 -11 6 -20 17 -20 25 0 7 -13 16 -30 20 -21 5 -30
13 -30 26 0 10 -6 19 -14 19 -7 0 -16 8 -19 18 -2 11 -17 22 -36 25 -19 4 -31
13 -31 22 0 9 -13 21 -30 26 -16 6 -30 17 -30 24 0 7 -16 16 -35 19 -25 5 -35
12 -35 25 0 13 -10 20 -30 25 -17 3 -30 12 -30 20 0 8 -16 20 -35 26 -19 6
-35 17 -35 25 0 7 -13 15 -29 18 -16 4 -30 14 -33 25 -4 14 -18 21 -51 26 -31
5 -46 12 -50 25 -2 10 -17 21 -34 24 -19 4 -32 14 -36 26 -3 14 -13 21 -29 21
-43 0 -68 12 -68 31 0 13 -7 19 -21 19 -40 0 -109 23 -109 36 0 7 -11 16 -25
19 -14 3 -36 7 -49 10 -13 3 -26 13 -28 23 -4 14 -22 21 -79 29 -52 8 -77 17
-88 32 -11 14 -37 24 -83 31 -45 8 -75 20 -92 35 -17 16 -43 25 -83 30 -89 10
-158 30 -158 46 0 15 -47 23 -575 107 -549 88 -574 91 -590 76 -13 -11 -33
-11 -125 1 -134 18 -135 18 -135 2z m-1720 -1762 c101 -16 135 -28 143 -49 4
-10 18 -16 36 -16 42 0 61 -9 61 -30 0 -14 9 -20 33 -22 23 -2 31 -7 29 -20
-2 -11 7 -18 29 -23 19 -4 33 -15 36 -26 3 -10 12 -19 19 -19 8 0 14 -9 14
-20 0 -11 7 -20 15 -20 8 0 15 -9 15 -20 0 -11 7 -20 15 -20 8 0 15 -9 15 -20
0 -11 7 -20 15 -20 8 0 15 -9 15 -19 0 -10 7 -21 15 -25 8 -3 15 -15 15 -26 0
-11 6 -20 14 -20 9 0 12 -9 10 -27 -1 -15 4 -36 13 -45 12 -13 14 -28 9 -59
-5 -32 -3 -44 10 -53 14 -11 15 -20 6 -72 -9 -49 -8 -61 4 -71 13 -10 14 -22
3 -92 -9 -56 -17 -81 -26 -81 -16 0 -18 -5 -33 -82 -9 -47 -15 -58 -31 -58
-15 0 -19 -7 -19 -31 0 -23 -5 -32 -21 -36 -12 -4 -22 -17 -26 -34 -4 -20 -12
-29 -24 -29 -11 0 -19 -7 -19 -15 0 -8 -9 -15 -20 -15 -11 0 -20 -7 -20 -15 0
-8 -9 -15 -20 -15 -11 0 -20 -7 -20 -15 0 -8 -9 -15 -20 -15 -11 0 -20 -7 -20
-15 0 -8 -9 -15 -19 -15 -10 0 -21 -7 -25 -15 -3 -8 -12 -15 -20 -15 -7 0 -16
-7 -20 -15 -3 -8 -12 -15 -19 -15 -8 0 -20 -6 -26 -14 -7 -8 -23 -13 -37 -11
-14 1 -32 -4 -40 -13 -11 -11 -27 -13 -59 -9 -35 5 -46 3 -53 -10 -9 -15 -22
-14 -153 6 -183 28 -229 40 -229 57 0 7 -11 16 -25 19 -14 3 -36 7 -49 10 -13
3 -26 13 -29 24 -3 11 -17 22 -36 26 -17 4 -31 13 -31 21 0 8 -7 14 -15 14 -8
0 -15 9 -15 20 0 11 -5 20 -10 20 -6 0 -15 11 -20 25 -5 14 -14 25 -20 25 -5
0 -10 7 -10 15 0 9 -7 18 -15 21 -8 4 -15 15 -15 25 0 10 -7 19 -15 19 -8 0
-15 9 -15 20 0 11 -7 20 -15 20 -8 0 -15 9 -15 20 0 12 -7 20 -16 20 -13 0
-15 7 -10 34 5 25 3 35 -9 40 -9 3 -15 18 -15 36 0 17 -5 39 -12 49 -9 15 -9
38 -2 92 8 57 7 74 -3 85 -20 20 -6 108 22 138 14 15 25 43 29 76 5 40 12 53
26 57 11 3 20 10 20 17 0 30 23 86 35 86 7 0 16 14 20 30 4 20 13 30 25 30 10
0 20 9 23 20 3 11 12 20 20 20 8 0 17 7 21 15 3 8 12 15 20 15 7 0 17 7 20 16
3 9 12 14 20 11 8 -3 16 2 19 14 3 12 11 17 20 13 9 -3 16 3 20 15 3 13 11 19
20 15 8 -3 17 2 20 10 4 10 19 16 41 16 22 0 36 6 40 16 4 12 14 14 36 9 23
-5 32 -3 36 10 6 14 16 16 59 10 42 -5 54 -3 58 9 7 17 22 17 177 -9z m4515
-715 c66 -11 123 -20 128 -20 4 0 7 -7 7 -15 0 -17 3 -18 67 -35 24 -6 42 -16
40 -22 -1 -6 12 -16 30 -21 17 -5 33 -17 36 -27 3 -10 18 -21 36 -25 17 -4 29
-11 26 -15 -3 -5 3 -15 15 -22 11 -7 20 -21 20 -30 0 -10 7 -18 15 -18 8 0 15
-9 15 -20 0 -11 7 -20 15 -20 8 0 15 -9 15 -20 0 -11 7 -20 15 -20 8 0 15 -9
15 -19 0 -10 7 -21 15 -25 10 -4 13 -14 9 -34 -4 -21 -2 -31 10 -35 9 -4 16
-13 16 -20 0 -8 7 -20 15 -27 12 -10 14 -24 9 -61 -6 -41 -4 -49 10 -49 19 0
19 -9 6 -81 -9 -45 -8 -56 5 -65 21 -15 3 -121 -24 -140 -13 -9 -21 -31 -26
-70 -5 -43 -11 -57 -25 -61 -11 -3 -21 -18 -25 -37 -11 -56 -16 -66 -30 -66
-8 0 -17 -11 -21 -25 -3 -14 -15 -30 -25 -36 -11 -5 -19 -16 -19 -24 0 -8 -9
-15 -20 -15 -11 0 -20 -7 -20 -15 0 -8 -9 -15 -19 -15 -10 0 -21 -7 -25 -15
-3 -8 -12 -15 -20 -15 -7 0 -17 -7 -20 -16 -3 -9 -13 -14 -21 -11 -8 4 -16 -2
-20 -14 -4 -12 -13 -18 -21 -15 -7 3 -18 -4 -24 -15 -6 -11 -15 -17 -21 -14
-5 4 -12 -1 -15 -9 -4 -10 -19 -16 -40 -16 -20 0 -37 -6 -40 -13 -3 -9 -19
-12 -53 -10 -28 3 -52 0 -56 -6 -9 -16 -59 -14 -202 9 -179 29 -181 29 -188
49 -4 12 -19 21 -45 25 -24 4 -43 14 -50 25 -5 11 -23 22 -40 26 -21 5 -30 13
-30 26 0 10 -7 19 -15 19 -8 0 -15 9 -15 20 0 11 -7 20 -15 20 -8 0 -15 9 -15
20 0 14 -7 20 -23 20 -30 0 -67 50 -67 90 0 20 -5 30 -15 30 -8 0 -15 9 -15
19 0 10 -7 22 -16 25 -12 4 -15 15 -12 37 3 21 0 33 -12 39 -12 6 -15 18 -12
39 3 21 0 33 -11 37 -16 6 -16 20 -1 106 4 29 2 39 -10 44 -17 7 -16 34 6 146
9 40 17 58 30 61 10 3 18 14 18 27 0 42 22 110 36 110 8 0 17 14 21 31 3 18
14 34 24 36 10 3 21 18 24 34 5 20 13 29 26 29 10 0 19 7 19 15 0 8 9 15 20
15 11 0 20 7 20 15 0 8 9 15 20 15 11 0 20 7 20 15 0 8 9 15 20 15 11 0 20 7
20 15 0 8 9 15 20 15 11 0 20 7 20 15 0 8 9 15 19 15 10 0 22 7 25 16 5 12 14
15 37 10 21 -4 31 -1 35 9 4 9 19 15 37 15 17 0 38 6 46 14 12 11 27 12 59 6
33 -6 45 -4 49 6 7 19 36 18 178 -6z"/>
<path d="M10876 8525 c-4 -12 -14 -14 -41 -9 -28 5 -35 3 -35 -10 0 -9 -8 -16
-20 -16 -11 0 -20 -7 -20 -15 0 -8 -9 -15 -19 -15 -13 0 -21 -9 -26 -29 -3
-16 -14 -31 -24 -34 -10 -2 -21 -18 -24 -36 -4 -18 -13 -31 -22 -31 -15 0 -18
-8 -35 -105 -8 -50 -8 -61 5 -68 9 -5 15 -22 15 -42 0 -23 5 -35 14 -35 9 0
12 -10 10 -34 -3 -23 0 -36 11 -40 8 -3 15 -12 15 -21 0 -8 5 -15 10 -15 6 0
15 -11 20 -24 6 -17 18 -26 37 -28 19 -2 28 -8 27 -20 -1 -10 0 -18 2 -18 2 0
63 -9 135 -21 120 -19 133 -20 141 -5 5 9 17 16 28 16 10 0 20 5 22 12 2 6 18
11 36 10 22 0 32 4 32 14 0 8 9 14 20 14 14 0 21 9 26 35 3 19 9 34 13 33 22
-2 29 6 35 42 4 24 14 43 25 50 23 12 42 101 22 108 -6 2 -11 26 -11 57 0 33
-5 55 -12 57 -7 3 -11 18 -10 36 2 22 -3 34 -13 38 -8 4 -15 13 -15 20 0 8 -7
17 -15 20 -8 4 -15 14 -15 24 0 14 -9 20 -32 22 -24 2 -33 8 -32 20 2 19 -3
20 -146 43 -118 19 -126 19 -134 0z"/>
<path d="M11936 8363 c-3 -7 -20 -13 -41 -13 -19 0 -35 -5 -35 -10 0 -6 -11
-15 -25 -20 -14 -5 -25 -14 -25 -20 0 -6 -4 -8 -10 -5 -5 3 -15 -3 -22 -15 -7
-11 -19 -20 -26 -20 -7 0 -15 -13 -18 -30 -4 -16 -12 -30 -20 -30 -19 0 -22
-9 -40 -120 -14 -87 -14 -106 -3 -127 8 -14 12 -36 11 -49 -2 -13 2 -24 8 -24
6 0 15 -11 20 -25 5 -14 14 -25 20 -25 5 0 10 -6 10 -14 0 -8 7 -16 15 -20 8
-3 15 -12 15 -20 0 -8 13 -17 30 -21 17 -4 30 -13 30 -20 0 -21 8 -23 128 -41
99 -15 112 -16 126 -2 9 9 25 13 40 11 16 -3 26 -1 26 6 0 6 11 16 25 21 14 5
25 14 25 20 0 5 7 10 15 10 9 0 18 7 21 15 4 8 15 15 25 15 14 0 19 7 19 26 0
17 6 28 20 31 11 3 20 6 20 7 39 231 39 231 24 242 -8 6 -14 23 -14 38 0 36
-96 166 -123 166 -10 0 -21 9 -24 19 -4 15 -20 22 -71 31 -164 27 -171 27
-176 13z"/>
<path d="M12956 8195 c-4 -12 -14 -14 -41 -9 -28 5 -35 3 -35 -10 0 -9 -8 -16
-20 -16 -11 0 -20 -7 -20 -15 0 -8 -9 -15 -20 -15 -15 0 -20 -7 -20 -26 0 -17
-6 -28 -20 -31 -20 -5 -23 -13 -35 -69 -3 -19 -14 -34 -24 -37 -25 -6 -36 -85
-15 -109 12 -12 14 -28 9 -62 -6 -40 -5 -46 10 -46 14 0 17 -6 12 -34 -4 -28
-2 -35 14 -39 12 -3 17 -11 13 -21 -4 -11 3 -17 28 -24 18 -5 32 -14 31 -20
-2 -6 6 -16 17 -22 11 -6 20 -17 20 -25 0 -8 14 -16 33 -19 17 -3 73 -13 122
-21 113 -19 125 -19 125 1 0 13 7 15 35 10 28 -6 35 -4 35 9 0 8 9 15 19 15
10 0 21 7 25 15 3 8 12 15 20 15 9 0 18 11 22 25 3 14 15 30 25 35 10 6 21 26
25 45 3 19 16 45 29 59 31 33 43 125 19 143 -11 8 -15 21 -12 37 3 15 -1 31
-8 37 -8 6 -14 25 -14 41 0 16 -6 31 -15 34 -8 4 -15 15 -15 25 0 10 -7 19
-15 19 -8 0 -15 9 -15 20 0 15 -7 20 -26 20 -17 0 -28 6 -31 20 -3 11 -6 20
-7 20 0 0 -53 9 -116 20 -139 24 -156 24 -164 5z"/>
</g>
</svg>
